<svg width="122" height="123" viewBox="0 0 122 123" fill="none" xmlns="http://www.w3.org/2000/svg">
<path d="M7.62516 28.4585C9.0307 28.4585 10.1668 27.3224 10.1668 25.9168V10.6668H25.4168C28.7337 10.6592 28.7464 5.59366 25.4168 5.5835H7.62516C6.21962 5.5835 5.0835 6.71962 5.0835 8.12516V25.9168C5.0835 27.3224 6.21962 28.4585 7.62516 28.4585Z" fill="white"/>
<path d="M114.375 94.542C112.969 94.542 111.833 95.6781 111.833 97.0837V112.334H96.5832C93.2664 112.341 93.2537 117.407 96.5832 117.417H114.375C115.78 117.417 116.917 116.281 116.917 114.875V97.0837C116.917 95.6781 115.78 94.542 114.375 94.542Z" fill="white"/>
<path d="M25.4168 112.333H10.1668V97.0832C10.1592 93.7664 5.09366 93.7537 5.0835 97.0832V114.875C5.0835 116.28 6.21962 117.417 7.62516 117.417H25.4168C28.7337 117.401 28.7464 112.348 25.4168 112.333Z" fill="white"/>
<path d="M114.375 5.5835H96.5832C93.2664 5.59875 93.2537 10.6516 96.5832 10.6668H111.833V25.9168C111.841 29.2337 116.906 29.2464 116.917 25.9168V8.12516C116.917 6.71962 115.78 5.5835 114.375 5.5835Z" fill="white"/>
<path d="M48.2917 15.75H17.7917C16.3861 15.75 15.25 16.8861 15.25 18.2917V48.7917C15.25 50.1972 16.3861 51.3334 17.7917 51.3334H48.2917C49.6972 51.3334 50.8334 50.1972 50.8334 48.7917V18.2917C50.8334 16.8861 49.6972 15.75 48.2917 15.75ZM45.75 46.25H20.3333V20.8333H45.75V46.25Z" fill="white"/>
<path d="M27.9587 41.167C43.1654 40.9281 40.4255 43.6527 40.667 28.4587C40.667 27.0531 39.5309 25.917 38.1253 25.917H27.9587C26.5531 25.917 25.417 27.0531 25.417 28.4587V38.6253C25.417 40.0309 26.5531 41.167 27.9587 41.167ZM30.5003 31.0003H35.5837V36.0837H30.5003V31.0003Z" fill="white"/>
<path d="M48.2917 71.667H17.7917C16.3861 71.667 15.25 72.8031 15.25 74.2087V104.709C15.25 106.114 16.3861 107.25 17.7917 107.25H48.2917C49.6972 107.25 50.8334 106.114 50.8334 104.709V74.2087C50.8334 72.8031 49.6972 71.667 48.2917 71.667ZM45.75 102.167H20.3333V76.7503H45.75V102.167Z" fill="white"/>
<path d="M27.9587 97.0835C43.1654 96.8446 40.4255 99.5692 40.667 84.3752C40.667 82.9696 39.5309 81.8335 38.1253 81.8335H27.9587C26.5531 81.8335 25.417 82.9696 25.417 84.3752V94.5418C25.417 95.9474 26.5531 97.0835 27.9587 97.0835ZM30.5003 86.9168H35.5837V92.0002H30.5003V86.9168Z" fill="white"/>
<path d="M104.209 51.3334C105.614 51.3334 106.75 50.1972 106.75 48.7917V18.2917C106.75 16.8861 105.614 15.75 104.209 15.75H73.7087C72.3031 15.75 71.167 16.8861 71.167 18.2917V48.7917C71.167 50.1972 72.3031 51.3334 73.7087 51.3334H104.209ZM76.2503 20.8333H101.667V46.25H76.2503V20.8333Z" fill="white"/>
<path d="M94.0417 25.9168C78.8349 26.1557 81.5748 23.431 81.3334 38.6251C81.3334 40.0307 82.4695 41.1668 83.875 41.1668H94.0417C95.4472 41.1668 96.5834 40.0307 96.5834 38.6251V28.4584C96.5834 27.0529 95.4472 25.9168 94.0417 25.9168ZM91.5 36.0834H86.4167V31.0001H91.5V36.0834Z" fill="white"/>
<path d="M66.0837 18.292H58.4587C57.0531 18.292 55.917 19.4281 55.917 20.8337V61.5003C55.9297 64.807 60.9851 64.8375 61.0003 61.5003V23.3753H66.0837C69.4031 23.3702 69.4107 18.2996 66.0837 18.292Z" fill="white"/>
<path d="M106.75 104.708V79.2917C106.75 77.8861 105.614 76.75 104.209 76.75C102.803 76.75 101.667 77.8861 101.667 79.2917V102.167H73.7088C70.3995 102.172 70.3741 107.24 73.7088 107.25H104.209C105.614 107.25 106.75 106.114 106.75 104.708Z" fill="white"/>
<path d="M94.042 94.542C95.4475 94.542 96.5836 93.4058 96.5836 92.0003V71.667H104.209C105.614 71.667 106.75 70.5309 106.75 69.1253C106.75 67.7198 105.614 66.5837 104.209 66.5837H96.5836V61.5003H104.209C107.531 61.4622 107.564 56.4678 104.209 56.417H94.042C92.6364 56.417 91.5003 57.5531 91.5003 58.9587V89.4586H61.0003V79.292C60.9546 75.9573 55.9653 75.9497 55.917 79.292V92.0003C55.917 93.4058 57.0531 94.542 58.4587 94.542H61.0003V102.167H58.4587C55.1342 102.208 55.1062 107.199 58.4587 107.25H63.542C64.9475 107.25 66.0837 106.114 66.0837 104.709V94.542H94.042Z" fill="white"/>
<path d="M83.8752 79.292H68.6252C65.3058 79.3047 65.2982 84.3626 68.6252 84.3753H83.8752C87.1947 84.3626 87.2023 79.3047 83.8752 79.292Z" fill="white"/>
<path d="M45.7501 69.1253C47.1556 69.1253 48.2917 67.9892 48.2917 66.5837V58.9587C48.2917 57.5531 47.1556 56.417 45.7501 56.417H17.7917C14.4774 56.4297 14.4596 61.4851 17.7917 61.5003H30.5001V66.5837C30.5128 69.9056 35.5707 69.9082 35.5834 66.5837V61.5003H43.2084V66.5837C43.2084 67.9892 44.3445 69.1253 45.7501 69.1253Z" fill="white"/>
<path d="M68.6251 71.6668C71.9445 71.6541 71.9521 66.5962 68.6251 66.5835H55.9167C52.5973 66.5962 52.5897 71.6541 55.9167 71.6668H68.6251Z" fill="white"/>
<path d="M68.6253 38.6252C68.6177 35.3134 63.5522 35.2906 63.542 38.6252V58.9586C63.542 60.3641 64.6781 61.5002 66.0837 61.5002H73.7087V74.2086C73.7188 77.5229 78.7793 77.5407 78.792 74.2086V61.5002H83.8753C87.1922 61.4875 87.2049 56.4296 83.8753 56.4169H68.6253V38.6252Z" fill="white"/>
</svg>
