<svg width="113" height="113" viewBox="0 0 113 113" fill="none" xmlns="http://www.w3.org/2000/svg">
<g clip-path="url(#clip0_2092_98)">
<path fill-rule="evenodd" clip-rule="evenodd" d="M87.9274 112.5H25.5723C22.9262 112.5 20.7842 110.358 20.7842 107.712V5.30382C20.7842 2.65778 22.9262 0.5 25.5723 0.5H87.9274C90.5735 0.5 92.7155 2.65778 92.7155 5.30382V107.712C92.7155 110.358 90.5735 112.5 87.9274 112.5ZM25.5723 3.13029C24.3752 3.13029 23.3987 4.10681 23.3987 5.30382V107.712C23.3987 108.909 24.3752 109.87 25.5723 109.87H87.9274C89.1245 109.87 90.101 108.909 90.101 107.712V5.30382C90.101 4.10681 89.1245 3.13029 87.9274 3.13029H25.5723Z" fill="white"/>
<path fill-rule="evenodd" clip-rule="evenodd" d="M70.8385 19.1326H42.6613C42.0785 19.1326 41.5588 18.7546 41.4013 18.1876L36.8022 2.1696C36.3139 0.515824 38.834 -0.208688 39.3222 1.44509L43.6536 16.5181H69.862L74.1775 1.44509C74.6658 -0.208688 77.1858 0.515824 76.7133 2.1696L72.0985 18.1876C71.941 18.7546 71.4212 19.1326 70.8385 19.1326Z" fill="white"/>
<path fill-rule="evenodd" clip-rule="evenodd" d="M73.1223 104.546H40.3775C38.645 104.546 38.645 101.916 40.3775 101.916H73.1223C74.8548 101.916 74.8548 104.546 73.1223 104.546Z" fill="white"/>
<path fill-rule="evenodd" clip-rule="evenodd" d="M67.1214 11.1313H46.3941C44.6616 11.1313 44.6616 8.50098 46.3941 8.50098H67.1214C68.8382 8.50098 68.8382 11.1313 67.1214 11.1313Z" fill="white"/>
<path fill-rule="evenodd" clip-rule="evenodd" d="M72.5236 89.347C72.0826 89.347 71.6416 89.1108 71.4053 88.7012L55.7338 62.5558C47.4492 64.4931 38.7551 60.8076 34.3765 53.4837C28.8009 44.1596 31.8407 32.0476 41.1491 26.4563C50.5047 20.8649 62.6167 23.952 68.1765 33.2446C72.5866 40.6157 71.7046 49.9714 66.0817 56.366L81.7375 82.5114C82.1155 83.1257 81.9107 83.9289 81.2965 84.3069L73.2009 89.158C72.9961 89.284 72.7598 89.347 72.5236 89.347ZM56.3638 59.7208C56.8206 59.7208 57.2459 59.957 57.4821 60.3666L72.9804 86.2285L78.8079 82.7319L63.3255 56.87C63.0262 56.3502 63.0892 55.7045 63.5145 55.2792C68.901 49.7351 69.8933 41.23 65.9242 34.5992C61.0259 26.409 50.5362 23.9047 42.5036 28.7086C34.4237 33.5596 31.7935 44.0651 36.6288 52.1292C40.6451 58.8545 48.599 61.9101 56.0016 59.768C56.1118 59.7365 56.2378 59.7208 56.3638 59.7208Z" fill="white"/>
<path fill-rule="evenodd" clip-rule="evenodd" d="M51.2926 57.8624C41.9212 57.8624 34.8966 49.058 37.2119 39.8284C38.8342 33.355 44.646 28.8662 51.2611 28.8662C60.6167 28.8662 67.6571 37.6706 65.3418 46.9002C63.7195 53.3736 57.8919 57.8624 51.2926 57.8624ZM51.2611 31.4808C42.126 31.4808 36.3299 41.5137 41.0864 49.4675C44.4885 55.1534 51.7966 56.9017 57.3722 53.5469C63.0108 50.1763 64.8378 42.8997 61.4673 37.2611C59.2937 33.6385 55.4822 31.4808 51.2611 31.4808Z" fill="white"/>
<path fill-rule="evenodd" clip-rule="evenodd" d="M64.3651 75.7233C63.0579 75.7233 62.5539 73.9751 63.7036 73.282L71.7835 68.4467C73.264 67.549 74.6185 69.8012 73.138 70.699L65.0424 75.5343C64.8376 75.6603 64.6014 75.7233 64.3651 75.7233Z" fill="white"/>
</g>
<defs>
<clipPath id="clip0_2092_98">
<rect width="112" height="112" fill="white" transform="translate(0.75 0.5)"/>
</clipPath>
</defs>
</svg>
